# xmcd
#
# Track frame offsets:
#	150
#	10858
#	21675
#	32481
#	45618
#	65371
#	77466
#	88252
#	98392
#	112230
#	125943
#	136945
#	150157
#	161488
#	172086
#	184933
#	198117
#	209698
#	224238
#	235314
#
# Disc length: 3277 seconds
#
# Revision: 1
# Processed by: cddbd v1.5.2PL0 Copyright (c) Steve Scherf et al.
# Submitted via: audiograbber 1.83.01
#
DISCID=1c0ccb14
DTITLE=Various Artist - Country's #1 Hits Of The 60's
DYEAR=2016
DGENRE=Country
TTITLE0=Ferlin Husky - Wings Of A Dove
TTITLE1=Faron Young - Hello Walls
TTITLE2=Hank Locklin - Please Help Me I'm Falling
TTITLE3=Johnny Horton - North To Alaska
TTITLE4=Marty Robbins - El Paso
TTITLE5=Kitty Wells - Heartbreak USA
TTITLE6=Leroy Van Dyke - Walk On By
TTITLE7=George Hamilton IV - Abilene
TTITLE8=Jimmy Dean - Big Bad John
TTITLE9=Claude King - Wolverton Mountain
TTITLE10=Jim Reeves - He'll Have To Go
TTITLE11=Patsy Cline - I Fall To Pieces
TTITLE12=George Jones - Tender Years
TTITLE13=Buck Owens - Act Naturally
TTITLE14=Bill Anderson - Still
TTITLE15=Carl Butler and Pearl - Don't Let Me Cross Over
TTITLE16=Porter Wagoner - Misery Loves Company
TTITLE17=Marty Robbins - Don't Worry
TTITLE18=Sheb Wooley - That's My Pa
TTITLE19=Billy Walker - Charlie's Shoes
EXTD=
EXTT0=
EXTT1=
EXTT2=
EXTT3=
EXTT4=
EXTT5=
EXTT6=
EXTT7=
EXTT8=
EXTT9=
EXTT10=
EXTT11=
EXTT12=
EXTT13=
EXTT14=
EXTT15=
EXTT16=
EXTT17=
EXTT18=
EXTT19=
PLAYORDER=
